<svg width="64" height="64" viewBox="0 0 64 64" fill="none" xmlns="http://www.w3.org/2000/svg">
<path d="M59.8263 49.9631C60.4015 48.1329 59.384 46.1832 57.554 45.6081C49.3853 43.0411 45.9165 28.4124 45.1033 23.0178C44.9842 22.2539 44.5897 21.5129 44.5897 21.5129C43.0896 18.6585 37.4114 17.3266 36.7724 17.2496C35.6245 17.1115 35.4786 16.2337 35.4303 15.9352C37.4355 14.5406 38.7896 11.1733 38.7896 8.13212C38.7893 3.64097 38.3152 0 32.1964 0C32.1142 0 31.8001 0 31.7179 0C25.5989 0 25.125 3.64097 25.125 8.13212C25.125 11.1733 26.479 14.5406 28.484 15.9352C28.4357 16.2337 28.2452 17.1264 27.142 17.2496C26.4542 17.3268 19.9358 18.8651 19.0594 22.1866C19.0594 22.1866 18.9516 22.6615 18.8864 23.0312C18.8777 23.081 18.2024 28.0978 16.1815 33.5473C14.4576 38.1955 11.3694 44.0611 6.4462 45.6081C4.61602 46.1832 3.59886 48.1331 4.1739 49.9633C4.63624 51.4341 5.98654 52.3786 7.44871 52.3947C4.52107 54.0783 4.09258 56.4258 4.09258 57.6423C4.09258 58.1257 4.34253 59.6977 5.48477 61.146C6.51019 62.448 8.55462 64 12.4678 64C13.0551 64 13.6759 63.9649 14.3137 63.8964C16.9167 63.6165 19.5415 63.1961 22.0793 62.7896C23.0004 62.6421 23.9208 62.4949 24.8426 62.3537C26.0701 62.1651 28.2834 62.0404 31.4195 61.9828H32.4946C35.6307 62.0404 37.844 62.1653 39.0715 62.3537C39.9933 62.4949 40.9137 62.6421 41.8348 62.7896C44.3726 63.1961 46.9974 63.6165 49.6004 63.8964C50.2384 63.9649 50.8593 64 51.4463 64C55.3595 64 57.4039 62.4478 58.4293 61.146C59.5716 59.6977 59.8215 58.1257 59.8215 57.6423C59.8215 56.4256 59.393 54.0779 56.4648 52.3943C56.4811 52.3945 56.4974 52.3962 56.5135 52.3962C57.9903 52.3962 59.36 51.4465 59.8263 49.9631ZM19.2441 49.5234C17.4822 50.0716 17.0777 50.1292 15.5705 50.3433C15.0801 50.4124 14.4772 50.4983 13.6786 50.6215C12.8965 50.7047 12.1795 50.8163 11.5186 50.9505C16.0485 48.4476 19.7021 43.6762 22.4099 36.7109C22.561 38.068 22.6545 39.5625 22.6545 41.2059C22.6545 46.5679 19.9386 49.3071 19.2441 49.5234ZM50.2355 50.6215C49.4369 50.4983 48.835 50.4035 48.3436 50.3433C43.5971 49.7587 41.2596 46.5681 41.2596 41.2061C41.2596 39.4924 41.3607 37.939 41.5234 36.5362C44.2477 43.6217 47.9407 48.4625 52.5315 50.9786C51.8335 50.8316 51.0714 50.7104 50.2355 50.6215Z" fill="black"/>
</svg>
